<svg id="Capa_1" data-name="Capa 1" xmlns="http://www.w3.org/2000/svg" width="1920" height="386" viewBox="0 0 1920 386"><defs><style>.cls-1{fill:#3f6ce0;stroke:#3f6ce0;stroke-width:100px;}.cls-1,.cls-2,.cls-3,.cls-4{stroke-miterlimit:10;}.cls-2{fill:#45ff89;stroke:#45ff89;stroke-width:80px;}.cls-3{fill:#e08634;stroke:#e08634;stroke-width:60px;}.cls-4{fill:#f9ff57;stroke:#f9ff57;stroke-width:40px;}.cls-5{fill:#f53ddc;}</style></defs><path class="cls-1" d="M244.3,105.89c0,11.88-6.6,24.42-6.6,38.28,0,15.18,5,33,11.22,50.16,13.53,38.61,47.85,64.35,47.85,89.1,0,16.5-18.48,33-38.61,33-15.84,0-41.58-6.6-41.58-27.06,0-6.27,2-12.54,2-18.81,0-15.18-14.85-26.07-36.63-26.07-18.48,0-34,8.58-34,25.08,0,8.25,3.3,13.86,3.3,19.8,0,16.83-17.82,27.06-37.29,27.06-22.45,0-36-11.22-36-28.71,0-37,55.11-96.36,55.11-140.91,0-12.21-6.93-26.07-6.93-38.94,0-17.49,13.53-34.32,61.05-34.32C229.12,73.55,244.3,88.73,244.3,105.89ZM185.23,159c-10.56,0-24.09,14.19-24.09,33.66,0,10.23,6.6,23.76,21.45,23.76,12.54,0,21.12-12.21,21.12-26.4C203.71,180.47,198.76,159,185.23,159Z"/><path class="cls-1" d="M465.07,66C490.48,66,504,83.12,504,105.89c0,26.4-14.19,66-14.19,123.75,0,52.47,15.51,63.69,15.51,74.58,0,5.28-6.93,8.91-13.86,8.91-14.19,0-34-10.89-49.5-26.4-32.67-33-45.87-122.1-76.56-122.1-10.89,0-14.85,9.9-14.85,19.8,0,48.84,33.33,61.38,33.33,95,0,20.79-23.43,32.34-42.24,32.34-26.08,0-38-14.19-38-28.71,0-13.53,7.27-28.71,14.19-41.58,6.27-11.22,15.52-29,15.52-71.28a212.66,212.66,0,0,0-3-34.65c-5.27-35.64-22.77-39.27-22.77-52.8,0-8.25,9.58-12.87,20.79-12.87,32,0,64.36,26.07,95.38,101,7.26,17.49,13.86,41.58,31.68,41.58,7.92,0,13.53-6.93,13.53-23.76,0-36.3-44.55-43.56-44.55-85.47C424.48,79.16,443.29,66,465.07,66Z"/><path class="cls-1" d="M679.23,105.89c0,11.88-6.6,24.42-6.6,38.28,0,15.18,5,33,11.22,50.16,13.53,38.61,47.85,64.35,47.85,89.1,0,16.5-18.48,33-38.61,33-15.84,0-41.58-6.6-41.58-27.06,0-6.27,2-12.54,2-18.81,0-15.18-14.85-26.07-36.63-26.07-18.48,0-34,8.58-34,25.08,0,8.25,3.3,13.86,3.3,19.8,0,16.83-17.82,27.06-37.29,27.06-22.44,0-36-11.22-36-28.71,0-37,55.11-96.36,55.11-140.91,0-12.21-6.93-26.07-6.93-38.94,0-17.49,13.53-34.32,61-34.32C664.05,73.55,679.23,88.73,679.23,105.89ZM620.16,159c-10.56,0-24.09,14.19-24.09,33.66,0,10.23,6.6,23.76,21.45,23.76,12.54,0,21.12-12.21,21.12-26.4C638.64,180.47,633.69,159,620.16,159Z"/><path class="cls-1" d="M965,121.73c0,7.92-5,13.86-11.55,13.86-15.18,0-8.25-24.42-42.9-24.42-7.92,0-16.5,5.28-16.5,14.19,0,31.35,75.57,24.09,75.57,94.05,0,63.69-40.59,86.46-80.85,86.46-47.85,0-75.24-25.74-75.24-58.74,0-11.22,5.94-25.41,16.5-25.41,10.23,0,7.59,19.14,35.64,19.14,10.23,0,18.15-6.6,18.15-17.49,0-36.3-54.12-17.82-54.12-84.48,0-32.34,24.09-59.4,67.32-59.4C933,79.49,965,92,965,121.73Z"/><path class="cls-1" d="M1106.91,129.32c0,26.07-20.13,60.72-66,60.72-49.5,0-64.69-28-64.69-55.44,0-43.89,22.78-63.36,71-63.36C1082.49,71.24,1106.91,92.36,1106.91,129.32Zm-70.29,17.16c0,9.57,5,18.81,16.17,18.81,15.18,0,22.44-9.57,22.44-19.47s-6.6-19.8-20.13-19.8C1042.23,126,1036.62,136.25,1036.62,146.48Z"/><path class="cls-1" d="M1141.55,73.88c15.18,0,32.67,11.22,57.42,11.22,23.76,0,39.6-7.92,53.13-7.92,10.89,0,23.76,7.59,23.76,28.71,0,19.47-12.54,42.24-32.67,42.24-15.84,0-31-14.52-46.86-14.52-11.55,0-22.44,8.91-22.44,20.79,0,7.92,6.27,22.44,21.78,22.44,13.2,0,31-7.26,45.21-7.26,14.85,0,24.09,9.57,24.09,26.07,0,20.79-10.56,28.38-23.43,28.38-14.19,0-31.35-7.92-45.21-7.92-24.42,0-28.38,8.91-28.38,17.49,0,16.5,33,20.46,33,48.84,0,17.82-3.3,36.3-41.91,36.3-28.38,0-42.9-12.87-42.9-34.32,0-26.07,11.88-38,11.88-105.27,0-52.47-14.19-53.13-14.19-77.22C1113.83,88.07,1125.71,73.88,1141.55,73.88Z"/><path class="cls-1" d="M1365,104.24c0,19.8-18.48,44.22-18.48,79.86,0,51.15,15.84,67.32,15.84,90.75,0,20.46-9.24,37.29-37.62,37.29-30.36,0-41.91-12.87-41.91-33,0-29,18.81-39.6,18.81-75.57,0-63.69-19.8-71.28-19.8-96.69,0-22.11,10.23-35.31,41.91-35.31C1355.06,71.57,1365,83.12,1365,104.24Z"/><path class="cls-1" d="M1447.78,206.21c0-61.05,42.9-131,115.83-131,25.08,0,67.65,13.53,67.65,41.58,0,5.28-3,10.23-8.91,10.23-8.58,0-22.11-7.92-37.62-7.92-32,0-51.48,40.26-51.48,71.94,0,34.65,18.15,58.41,39.27,58.41s40.59-21.78,52.47-21.78c6.6,0,10.23,7.59,10.23,13.53,0,43.89-57.75,72.6-91.74,72.6C1484.08,313.79,1447.78,260,1447.78,206.21Z"/><path class="cls-1" d="M1792.63,70.91c27.06,0,44.88,8.25,44.88,29.37,0,40.26-29.7,53.46-29.7,85.14,0,38.28,27.39,45.54,27.39,93.39,0,25.08-20.79,35.64-43.56,35.64-23.43,0-37.62-12.21-37.62-28.71,0-18.81,17.16-40.92,17.16-61.05,0-12.54-9.24-27.72-29.7-27.72-17.49,0-30.36,9.9-30.36,31,0,10.23,13.53,33.66,13.53,53.46,0,20.13-14.85,31.35-38.28,31.35-23.76,0-42.9-9.9-42.9-29.37,0-48.84,24.42-49.5,24.42-98.67,0-51.81-24.75-50.82-24.75-82.17,0-24.09,19.14-33.33,46.2-33.33,22.44,0,41.91,7.26,41.91,22.44,0,30.69-23.1,30-23.1,54.78,0,17.82,10.89,21.78,27.39,21.78,27.39,0,37-10.89,37-21.45,0-16.83-23.1-34.32-23.1-51.48C1749.4,74.87,1776.46,70.91,1792.63,70.91Z"/><path class="cls-2" d="M243.8,105.62c0,11.88-6.6,24.42-6.6,38.28,0,15.18,5,33,11.22,50.16,13.53,38.61,47.85,64.35,47.85,89.1,0,16.5-18.48,33-38.61,33-15.84,0-41.58-6.6-41.58-27.06,0-6.27,2-12.54,2-18.81,0-15.18-14.85-26.07-36.63-26.07-18.48,0-34,8.58-34,25.08,0,8.25,3.3,13.86,3.3,19.8,0,16.83-17.82,27.06-37.29,27.06-22.44,0-36-11.22-36-28.71,0-37,55.11-96.36,55.11-140.91,0-12.21-6.93-26.07-6.93-38.94,0-17.49,13.53-34.32,61.05-34.32C228.62,73.28,243.8,88.46,243.8,105.62Zm-59.07,53.13c-10.56,0-24.09,14.19-24.09,33.66,0,10.23,6.6,23.76,21.45,23.76,12.54,0,21.12-12.21,21.12-26.4C203.21,180.2,198.26,158.75,184.73,158.75Z"/><path class="cls-2" d="M464.57,65.69c25.41,0,38.94,17.16,38.94,39.93,0,26.4-14.19,66-14.19,123.75,0,52.47,15.51,63.69,15.51,74.58,0,5.28-6.93,8.91-13.86,8.91-14.19,0-34-10.89-49.5-26.4-32.67-33-45.87-122.1-76.56-122.1-10.89,0-14.85,9.9-14.85,19.8,0,48.84,33.33,61.38,33.33,95,0,20.79-23.43,32.34-42.24,32.34-26.07,0-37.95-14.19-37.95-28.71,0-13.53,7.26-28.71,14.19-41.58,6.27-11.22,15.51-29,15.51-71.28a213.73,213.73,0,0,0-3-34.65c-5.28-35.64-22.77-39.27-22.77-52.8,0-8.25,9.57-12.87,20.79-12.87,32,0,64.35,26.07,95.37,101,7.26,17.49,13.86,41.58,31.68,41.58,7.92,0,13.53-6.93,13.53-23.76,0-36.3-44.55-43.56-44.55-85.47C424,78.89,442.79,65.69,464.57,65.69Z"/><path class="cls-2" d="M678.74,105.62c0,11.88-6.6,24.42-6.6,38.28,0,15.18,5,33,11.22,50.16,13.53,38.61,47.85,64.35,47.85,89.1,0,16.5-18.48,33-38.61,33-15.84,0-41.58-6.6-41.58-27.06,0-6.27,2-12.54,2-18.81,0-15.18-14.85-26.07-36.63-26.07-18.48,0-34,8.58-34,25.08,0,8.25,3.3,13.86,3.3,19.8,0,16.83-17.82,27.06-37.29,27.06-22.44,0-36-11.22-36-28.71,0-37,55.11-96.36,55.11-140.91,0-12.21-6.93-26.07-6.93-38.94,0-17.49,13.53-34.32,61-34.32C663.56,73.28,678.74,88.46,678.74,105.62Zm-59.07,53.13c-10.56,0-24.09,14.19-24.09,33.66,0,10.23,6.6,23.76,21.45,23.76,12.54,0,21.12-12.21,21.12-26.4C638.15,180.2,633.2,158.75,619.67,158.75Z"/><path class="cls-2" d="M964.51,121.46c0,7.92-4.94,13.86-11.55,13.86-15.17,0-8.25-24.42-42.9-24.42-7.92,0-16.5,5.28-16.5,14.19,0,31.35,75.57,24.09,75.57,94,0,63.69-40.59,86.46-80.85,86.46-47.85,0-75.24-25.74-75.24-58.74,0-11.22,5.94-25.41,16.5-25.41,10.23,0,7.59,19.14,35.64,19.14,10.23,0,18.15-6.6,18.15-17.49,0-36.3-54.12-17.82-54.12-84.48,0-32.34,24.09-59.4,67.32-59.4C932.5,79.22,964.51,91.76,964.51,121.46Z"/><path class="cls-2" d="M1106.41,129.05c0,26.07-20.13,60.72-66,60.72-49.5,0-64.68-28.05-64.68-55.44,0-43.89,22.77-63.36,71-63.36C1082,71,1106.41,92.09,1106.41,129.05Zm-70.29,17.16c0,9.57,5,18.81,16.17,18.81,15.18,0,22.44-9.57,22.44-19.47s-6.6-19.8-20.13-19.8C1041.73,125.75,1036.12,136,1036.12,146.21Z"/><path class="cls-2" d="M1141.06,73.61c15.18,0,32.67,11.22,57.42,11.22,23.76,0,39.6-7.92,53.13-7.92,10.89,0,23.76,7.59,23.76,28.71,0,19.47-12.54,42.24-32.67,42.24-15.84,0-31-14.52-46.86-14.52-11.55,0-22.44,8.91-22.44,20.79,0,7.92,6.27,22.44,21.78,22.44,13.2,0,31-7.26,45.21-7.26,14.85,0,24.09,9.57,24.09,26.07,0,20.79-10.56,28.38-23.43,28.38-14.19,0-31.35-7.92-45.21-7.92-24.42,0-28.38,8.91-28.38,17.49,0,16.5,33,20.46,33,48.84,0,17.82-3.3,36.3-41.91,36.3-28.38,0-42.9-12.87-42.9-34.32,0-26.07,11.88-37.95,11.88-105.27,0-52.47-14.19-53.13-14.19-77.22C1113.34,87.8,1125.22,73.61,1141.06,73.61Z"/><path class="cls-2" d="M1364.46,104c0,19.8-18.48,44.22-18.48,79.86,0,51.15,15.84,67.32,15.84,90.75,0,20.46-9.24,37.29-37.62,37.29-30.36,0-41.91-12.87-41.91-33,0-29,18.81-39.6,18.81-75.57,0-63.69-19.8-71.28-19.8-96.69,0-22.11,10.23-35.31,41.91-35.31C1354.56,71.3,1364.46,82.85,1364.46,104Z"/><path class="cls-2" d="M1447.28,205.94c0-61.05,42.9-131,115.83-131,25.08,0,67.65,13.53,67.65,41.58,0,5.28-3,10.23-8.91,10.23-8.58,0-22.11-7.92-37.62-7.92-32,0-51.48,40.26-51.48,71.94,0,34.65,18.15,58.41,39.27,58.41s40.59-21.78,52.47-21.78c6.6,0,10.23,7.59,10.23,13.53,0,43.89-57.75,72.6-91.74,72.6C1483.58,313.52,1447.28,259.73,1447.28,205.94Z"/><path class="cls-2" d="M1792.13,70.64c27.06,0,44.88,8.25,44.88,29.37,0,40.26-29.7,53.46-29.7,85.14,0,38.28,27.39,45.54,27.39,93.39,0,25.08-20.79,35.64-43.56,35.64-23.43,0-37.62-12.21-37.62-28.71,0-18.81,17.16-40.92,17.16-61.05,0-12.54-9.24-27.72-29.7-27.72-17.49,0-30.36,9.9-30.36,31,0,10.23,13.53,33.66,13.53,53.46,0,20.13-14.85,31.35-38.28,31.35-23.76,0-42.9-9.9-42.9-29.37,0-48.84,24.42-49.5,24.42-98.67,0-51.81-24.75-50.82-24.75-82.17,0-24.09,19.14-33.33,46.2-33.33,22.44,0,41.91,7.26,41.91,22.44,0,30.69-23.1,30-23.1,54.78,0,17.82,10.89,21.78,27.39,21.78,27.39,0,37-10.89,37-21.45,0-16.83-23.1-34.32-23.1-51.48C1748.9,74.6,1776,70.64,1792.13,70.64Z"/><path class="cls-3" d="M243.8,105.62c0,11.88-6.6,24.42-6.6,38.28,0,15.18,5,33,11.22,50.16,13.53,38.61,47.85,64.35,47.85,89.1,0,16.5-18.48,33-38.61,33-15.84,0-41.58-6.6-41.58-27.06,0-6.27,2-12.54,2-18.81,0-15.18-14.85-26.07-36.63-26.07-18.48,0-34,8.58-34,25.08,0,8.25,3.3,13.86,3.3,19.8,0,16.83-17.82,27.06-37.29,27.06-22.44,0-36-11.22-36-28.71,0-37,55.11-96.36,55.11-140.91,0-12.21-6.93-26.07-6.93-38.94,0-17.49,13.53-34.32,61.05-34.32C228.62,73.28,243.8,88.46,243.8,105.62Zm-59.07,53.13c-10.56,0-24.09,14.19-24.09,33.66,0,10.23,6.6,23.76,21.45,23.76,12.54,0,21.12-12.21,21.12-26.4C203.21,180.2,198.26,158.75,184.73,158.75Z"/><path class="cls-3" d="M464.57,65.69c25.41,0,38.94,17.16,38.94,39.93,0,26.4-14.19,66-14.19,123.75,0,52.47,15.51,63.69,15.51,74.58,0,5.28-6.93,8.91-13.86,8.91-14.19,0-34-10.89-49.5-26.4-32.67-33-45.87-122.1-76.56-122.1-10.89,0-14.85,9.9-14.85,19.8,0,48.84,33.33,61.38,33.33,95,0,20.79-23.43,32.34-42.24,32.34-26.07,0-37.95-14.19-37.95-28.71,0-13.53,7.26-28.71,14.19-41.58,6.27-11.22,15.51-29,15.51-71.28a213.73,213.73,0,0,0-3-34.65c-5.28-35.64-22.77-39.27-22.77-52.8,0-8.25,9.57-12.87,20.79-12.87,32,0,64.35,26.07,95.37,101,7.26,17.49,13.86,41.58,31.68,41.58,7.92,0,13.53-6.93,13.53-23.76,0-36.3-44.55-43.56-44.55-85.47C424,78.89,442.79,65.69,464.57,65.69Z"/><path class="cls-3" d="M678.74,105.62c0,11.88-6.6,24.42-6.6,38.28,0,15.18,5,33,11.22,50.16,13.53,38.61,47.85,64.35,47.85,89.1,0,16.5-18.48,33-38.61,33-15.84,0-41.58-6.6-41.58-27.06,0-6.27,2-12.54,2-18.81,0-15.18-14.85-26.07-36.63-26.07-18.48,0-34,8.58-34,25.08,0,8.25,3.3,13.86,3.3,19.8,0,16.83-17.82,27.06-37.29,27.06-22.44,0-36-11.22-36-28.71,0-37,55.11-96.36,55.11-140.91,0-12.21-6.93-26.07-6.93-38.94,0-17.49,13.53-34.32,61-34.32C663.56,73.28,678.74,88.46,678.74,105.62Zm-59.07,53.13c-10.56,0-24.09,14.19-24.09,33.66,0,10.23,6.6,23.76,21.45,23.76,12.54,0,21.12-12.21,21.12-26.4C638.15,180.2,633.2,158.75,619.67,158.75Z"/><path class="cls-3" d="M964.51,121.46c0,7.92-4.94,13.86-11.55,13.86-15.17,0-8.25-24.42-42.9-24.42-7.92,0-16.5,5.28-16.5,14.19,0,31.35,75.57,24.09,75.57,94,0,63.69-40.59,86.46-80.85,86.46-47.85,0-75.24-25.74-75.24-58.74,0-11.22,5.94-25.41,16.5-25.41,10.23,0,7.59,19.14,35.64,19.14,10.23,0,18.15-6.6,18.15-17.49,0-36.3-54.12-17.82-54.12-84.48,0-32.34,24.09-59.4,67.32-59.4C932.5,79.22,964.51,91.76,964.51,121.46Z"/><path class="cls-3" d="M1106.41,129.05c0,26.07-20.13,60.72-66,60.72-49.5,0-64.68-28.05-64.68-55.44,0-43.89,22.77-63.36,71-63.36C1082,71,1106.41,92.09,1106.41,129.05Zm-70.29,17.16c0,9.57,5,18.81,16.17,18.81,15.18,0,22.44-9.57,22.44-19.47s-6.6-19.8-20.13-19.8C1041.73,125.75,1036.12,136,1036.12,146.21Z"/><path class="cls-3" d="M1141.06,73.61c15.18,0,32.67,11.22,57.42,11.22,23.76,0,39.6-7.92,53.13-7.92,10.89,0,23.76,7.59,23.76,28.71,0,19.47-12.54,42.24-32.67,42.24-15.84,0-31-14.52-46.86-14.52-11.55,0-22.44,8.91-22.44,20.79,0,7.92,6.27,22.44,21.78,22.44,13.2,0,31-7.26,45.21-7.26,14.85,0,24.09,9.57,24.09,26.07,0,20.79-10.56,28.38-23.43,28.38-14.19,0-31.35-7.92-45.21-7.92-24.42,0-28.38,8.91-28.38,17.49,0,16.5,33,20.46,33,48.84,0,17.82-3.3,36.3-41.91,36.3-28.38,0-42.9-12.87-42.9-34.32,0-26.07,11.88-37.95,11.88-105.27,0-52.47-14.19-53.13-14.19-77.22C1113.34,87.8,1125.22,73.61,1141.06,73.61Z"/><path class="cls-3" d="M1364.46,104c0,19.8-18.48,44.22-18.48,79.86,0,51.15,15.84,67.32,15.84,90.75,0,20.46-9.24,37.29-37.62,37.29-30.36,0-41.91-12.87-41.91-33,0-29,18.81-39.6,18.81-75.57,0-63.69-19.8-71.28-19.8-96.69,0-22.11,10.23-35.31,41.91-35.31C1354.56,71.3,1364.46,82.85,1364.46,104Z"/><path class="cls-3" d="M1447.28,205.94c0-61.05,42.9-131,115.83-131,25.08,0,67.65,13.53,67.65,41.58,0,5.28-3,10.23-8.91,10.23-8.58,0-22.11-7.92-37.62-7.92-32,0-51.48,40.26-51.48,71.94,0,34.65,18.15,58.41,39.27,58.41s40.59-21.78,52.47-21.78c6.6,0,10.23,7.59,10.23,13.53,0,43.89-57.75,72.6-91.74,72.6C1483.58,313.52,1447.28,259.73,1447.28,205.94Z"/><path class="cls-3" d="M1792.13,70.64c27.06,0,44.88,8.25,44.88,29.37,0,40.26-29.7,53.46-29.7,85.14,0,38.28,27.39,45.54,27.39,93.39,0,25.08-20.79,35.64-43.56,35.64-23.43,0-37.62-12.21-37.62-28.71,0-18.81,17.16-40.92,17.16-61.05,0-12.54-9.24-27.72-29.7-27.72-17.49,0-30.36,9.9-30.36,31,0,10.23,13.53,33.66,13.53,53.46,0,20.13-14.85,31.35-38.28,31.35-23.76,0-42.9-9.9-42.9-29.37,0-48.84,24.42-49.5,24.42-98.67,0-51.81-24.75-50.82-24.75-82.17,0-24.09,19.14-33.33,46.2-33.33,22.44,0,41.91,7.26,41.91,22.44,0,30.69-23.1,30-23.1,54.78,0,17.82,10.89,21.78,27.39,21.78,27.39,0,37-10.89,37-21.45,0-16.83-23.1-34.32-23.1-51.48C1748.9,74.6,1776,70.64,1792.13,70.64Z"/><path class="cls-4" d="M243.8,105.62c0,11.88-6.6,24.42-6.6,38.28,0,15.18,5,33,11.22,50.16,13.53,38.61,47.85,64.35,47.85,89.1,0,16.5-18.48,33-38.61,33-15.84,0-41.58-6.6-41.58-27.06,0-6.27,2-12.54,2-18.81,0-15.18-14.85-26.07-36.63-26.07-18.48,0-34,8.58-34,25.08,0,8.25,3.3,13.86,3.3,19.8,0,16.83-17.82,27.06-37.29,27.06-22.44,0-36-11.22-36-28.71,0-37,55.11-96.36,55.11-140.91,0-12.21-6.93-26.07-6.93-38.94,0-17.49,13.53-34.32,61.05-34.32C228.62,73.28,243.8,88.46,243.8,105.62Zm-59.07,53.13c-10.56,0-24.09,14.19-24.09,33.66,0,10.23,6.6,23.76,21.45,23.76,12.54,0,21.12-12.21,21.12-26.4C203.21,180.2,198.26,158.75,184.73,158.75Z"/><path class="cls-4" d="M464.57,65.69c25.41,0,38.94,17.16,38.94,39.93,0,26.4-14.19,66-14.19,123.75,0,52.47,15.51,63.69,15.51,74.58,0,5.28-6.93,8.91-13.86,8.91-14.19,0-34-10.89-49.5-26.4-32.67-33-45.87-122.1-76.56-122.1-10.89,0-14.85,9.9-14.85,19.8,0,48.84,33.33,61.38,33.33,95,0,20.79-23.43,32.34-42.24,32.34-26.07,0-37.95-14.19-37.95-28.71,0-13.53,7.26-28.71,14.19-41.58,6.27-11.22,15.51-29,15.51-71.28a213.73,213.73,0,0,0-3-34.65c-5.28-35.64-22.77-39.27-22.77-52.8,0-8.25,9.57-12.87,20.79-12.87,32,0,64.35,26.07,95.37,101,7.26,17.49,13.86,41.58,31.68,41.58,7.92,0,13.53-6.93,13.53-23.76,0-36.3-44.55-43.56-44.55-85.47C424,78.89,442.79,65.69,464.57,65.69Z"/><path class="cls-4" d="M678.74,105.62c0,11.88-6.6,24.42-6.6,38.28,0,15.18,5,33,11.22,50.16,13.53,38.61,47.85,64.35,47.85,89.1,0,16.5-18.48,33-38.61,33-15.84,0-41.58-6.6-41.58-27.06,0-6.27,2-12.54,2-18.81,0-15.18-14.85-26.07-36.63-26.07-18.48,0-34,8.58-34,25.08,0,8.25,3.3,13.86,3.3,19.8,0,16.83-17.82,27.06-37.29,27.06-22.44,0-36-11.22-36-28.71,0-37,55.11-96.36,55.11-140.91,0-12.21-6.93-26.07-6.93-38.94,0-17.49,13.53-34.32,61-34.32C663.56,73.28,678.74,88.46,678.74,105.62Zm-59.07,53.13c-10.56,0-24.09,14.19-24.09,33.66,0,10.23,6.6,23.76,21.45,23.76,12.54,0,21.12-12.21,21.12-26.4C638.15,180.2,633.2,158.75,619.67,158.75Z"/><path class="cls-4" d="M964.51,121.46c0,7.92-4.94,13.86-11.55,13.86-15.17,0-8.25-24.42-42.9-24.42-7.92,0-16.5,5.28-16.5,14.19,0,31.35,75.57,24.09,75.57,94,0,63.69-40.59,86.46-80.85,86.46-47.85,0-75.24-25.74-75.24-58.74,0-11.22,5.94-25.41,16.5-25.41,10.23,0,7.59,19.14,35.64,19.14,10.23,0,18.15-6.6,18.15-17.49,0-36.3-54.12-17.82-54.12-84.48,0-32.34,24.09-59.4,67.32-59.4C932.5,79.22,964.51,91.76,964.51,121.46Z"/><path class="cls-4" d="M1106.41,129.05c0,26.07-20.13,60.72-66,60.72-49.5,0-64.68-28.05-64.68-55.44,0-43.89,22.77-63.36,71-63.36C1082,71,1106.41,92.09,1106.41,129.05Zm-70.29,17.16c0,9.57,5,18.81,16.17,18.81,15.18,0,22.44-9.57,22.44-19.47s-6.6-19.8-20.13-19.8C1041.73,125.75,1036.12,136,1036.12,146.21Z"/><path class="cls-4" d="M1141.06,73.61c15.18,0,32.67,11.22,57.42,11.22,23.76,0,39.6-7.92,53.13-7.92,10.89,0,23.76,7.59,23.76,28.71,0,19.47-12.54,42.24-32.67,42.24-15.84,0-31-14.52-46.86-14.52-11.55,0-22.44,8.91-22.44,20.79,0,7.92,6.27,22.44,21.78,22.44,13.2,0,31-7.26,45.21-7.26,14.85,0,24.09,9.57,24.09,26.07,0,20.79-10.56,28.38-23.43,28.38-14.19,0-31.35-7.92-45.21-7.92-24.42,0-28.38,8.91-28.38,17.49,0,16.5,33,20.46,33,48.84,0,17.82-3.3,36.3-41.91,36.3-28.38,0-42.9-12.87-42.9-34.32,0-26.07,11.88-37.95,11.88-105.27,0-52.47-14.19-53.13-14.19-77.22C1113.34,87.8,1125.22,73.61,1141.06,73.61Z"/><path class="cls-4" d="M1364.46,104c0,19.8-18.48,44.22-18.48,79.86,0,51.15,15.84,67.32,15.84,90.75,0,20.46-9.24,37.29-37.62,37.29-30.36,0-41.91-12.87-41.91-33,0-29,18.81-39.6,18.81-75.57,0-63.69-19.8-71.28-19.8-96.69,0-22.11,10.23-35.31,41.91-35.31C1354.56,71.3,1364.46,82.85,1364.46,104Z"/><path class="cls-4" d="M1447.28,205.94c0-61.05,42.9-131,115.83-131,25.08,0,67.65,13.53,67.65,41.58,0,5.28-3,10.23-8.91,10.23-8.58,0-22.11-7.92-37.62-7.92-32,0-51.48,40.26-51.48,71.94,0,34.65,18.15,58.41,39.27,58.41s40.59-21.78,52.47-21.78c6.6,0,10.23,7.59,10.23,13.53,0,43.89-57.75,72.6-91.74,72.6C1483.58,313.52,1447.28,259.73,1447.28,205.94Z"/><path class="cls-4" d="M1792.13,70.64c27.06,0,44.88,8.25,44.88,29.37,0,40.26-29.7,53.46-29.7,85.14,0,38.28,27.39,45.54,27.39,93.39,0,25.08-20.79,35.64-43.56,35.64-23.43,0-37.62-12.21-37.62-28.71,0-18.81,17.16-40.92,17.16-61.05,0-12.54-9.24-27.72-29.7-27.72-17.49,0-30.36,9.9-30.36,31,0,10.23,13.53,33.66,13.53,53.46,0,20.13-14.85,31.35-38.28,31.35-23.76,0-42.9-9.9-42.9-29.37,0-48.84,24.42-49.5,24.42-98.67,0-51.81-24.75-50.82-24.75-82.17,0-24.09,19.14-33.33,46.2-33.33,22.44,0,41.91,7.26,41.91,22.44,0,30.69-23.1,30-23.1,54.78,0,17.82,10.89,21.78,27.39,21.78,27.39,0,37-10.89,37-21.45,0-16.83-23.1-34.32-23.1-51.48C1748.9,74.6,1776,70.64,1792.13,70.64Z"/><path class="cls-5" d="M243.8,105.62c0,11.88-6.6,24.42-6.6,38.28,0,15.18,5,33,11.22,50.16,13.53,38.61,47.85,64.35,47.85,89.1,0,16.5-18.48,33-38.61,33-15.84,0-41.58-6.6-41.58-27.06,0-6.27,2-12.54,2-18.81,0-15.18-14.85-26.07-36.63-26.07-18.48,0-34,8.58-34,25.08,0,8.25,3.3,13.86,3.3,19.8,0,16.83-17.82,27.06-37.29,27.06-22.44,0-36-11.22-36-28.71,0-37,55.11-96.36,55.11-140.91,0-12.21-6.93-26.07-6.93-38.94,0-17.49,13.53-34.32,61.05-34.32C228.62,73.28,243.8,88.46,243.8,105.62Zm-59.07,53.13c-10.56,0-24.09,14.19-24.09,33.66,0,10.23,6.6,23.76,21.45,23.76,12.54,0,21.12-12.21,21.12-26.4C203.21,180.2,198.26,158.75,184.73,158.75Z"/><path class="cls-5" d="M464.57,65.69c25.41,0,38.94,17.16,38.94,39.93,0,26.4-14.19,66-14.19,123.75,0,52.47,15.51,63.69,15.51,74.58,0,5.28-6.93,8.91-13.86,8.91-14.19,0-34-10.89-49.5-26.4-32.67-33-45.87-122.1-76.56-122.1-10.89,0-14.85,9.9-14.85,19.8,0,48.84,33.33,61.38,33.33,95,0,20.79-23.43,32.34-42.24,32.34-26.07,0-37.95-14.19-37.95-28.71,0-13.53,7.26-28.71,14.19-41.58,6.27-11.22,15.51-29,15.51-71.28a213.73,213.73,0,0,0-3-34.65c-5.28-35.64-22.77-39.27-22.77-52.8,0-8.25,9.57-12.87,20.79-12.87,32,0,64.35,26.07,95.37,101,7.26,17.49,13.86,41.58,31.68,41.58,7.92,0,13.53-6.93,13.53-23.76,0-36.3-44.55-43.56-44.55-85.47C424,78.89,442.79,65.69,464.57,65.69Z"/><path class="cls-5" d="M678.74,105.62c0,11.88-6.6,24.42-6.6,38.28,0,15.18,5,33,11.22,50.16,13.53,38.61,47.85,64.35,47.85,89.1,0,16.5-18.48,33-38.61,33-15.84,0-41.58-6.6-41.58-27.06,0-6.27,2-12.54,2-18.81,0-15.18-14.85-26.07-36.63-26.07-18.48,0-34,8.58-34,25.08,0,8.25,3.3,13.86,3.3,19.8,0,16.83-17.82,27.06-37.29,27.06-22.44,0-36-11.22-36-28.71,0-37,55.11-96.36,55.11-140.91,0-12.21-6.93-26.07-6.93-38.94,0-17.49,13.53-34.32,61-34.32C663.56,73.28,678.74,88.46,678.74,105.62Zm-59.07,53.13c-10.56,0-24.09,14.19-24.09,33.66,0,10.23,6.6,23.76,21.45,23.76,12.54,0,21.12-12.21,21.12-26.4C638.15,180.2,633.2,158.75,619.67,158.75Z"/><path class="cls-5" d="M964.51,121.46c0,7.92-4.94,13.86-11.55,13.86-15.17,0-8.25-24.42-42.9-24.42-7.92,0-16.5,5.28-16.5,14.19,0,31.35,75.57,24.09,75.57,94,0,63.69-40.59,86.46-80.85,86.46-47.85,0-75.24-25.74-75.24-58.74,0-11.22,5.94-25.41,16.5-25.41,10.23,0,7.59,19.14,35.64,19.14,10.23,0,18.15-6.6,18.15-17.49,0-36.3-54.12-17.82-54.12-84.48,0-32.34,24.09-59.4,67.32-59.4C932.5,79.22,964.51,91.76,964.51,121.46Z"/><path class="cls-5" d="M1106.41,129.05c0,26.07-20.13,60.72-66,60.72-49.5,0-64.68-28.05-64.68-55.44,0-43.89,22.77-63.36,71-63.36C1082,71,1106.41,92.09,1106.41,129.05Zm-70.29,17.16c0,9.57,5,18.81,16.17,18.81,15.18,0,22.44-9.57,22.44-19.47s-6.6-19.8-20.13-19.8C1041.73,125.75,1036.12,136,1036.12,146.21Z"/><path class="cls-5" d="M1141.06,73.61c15.18,0,32.67,11.22,57.42,11.22,23.76,0,39.6-7.92,53.13-7.92,10.89,0,23.76,7.59,23.76,28.71,0,19.47-12.54,42.24-32.67,42.24-15.84,0-31-14.52-46.86-14.52-11.55,0-22.44,8.91-22.44,20.79,0,7.92,6.27,22.44,21.78,22.44,13.2,0,31-7.26,45.21-7.26,14.85,0,24.09,9.57,24.09,26.07,0,20.79-10.56,28.38-23.43,28.38-14.19,0-31.35-7.92-45.21-7.92-24.42,0-28.38,8.91-28.38,17.49,0,16.5,33,20.46,33,48.84,0,17.82-3.3,36.3-41.91,36.3-28.38,0-42.9-12.87-42.9-34.32,0-26.07,11.88-37.95,11.88-105.27,0-52.47-14.19-53.13-14.19-77.22C1113.34,87.8,1125.22,73.61,1141.06,73.61Z"/><path class="cls-5" d="M1364.46,104c0,19.8-18.48,44.22-18.48,79.86,0,51.15,15.84,67.32,15.84,90.75,0,20.46-9.24,37.29-37.62,37.29-30.36,0-41.91-12.87-41.91-33,0-29,18.81-39.6,18.81-75.57,0-63.69-19.8-71.28-19.8-96.69,0-22.11,10.23-35.31,41.91-35.31C1354.56,71.3,1364.46,82.85,1364.46,104Z"/><path class="cls-5" d="M1447.28,205.94c0-61.05,42.9-131,115.83-131,25.08,0,67.65,13.53,67.65,41.58,0,5.28-3,10.23-8.91,10.23-8.58,0-22.11-7.92-37.62-7.92-32,0-51.48,40.26-51.48,71.94,0,34.65,18.15,58.41,39.27,58.41s40.59-21.78,52.47-21.78c6.6,0,10.23,7.59,10.23,13.53,0,43.89-57.75,72.6-91.74,72.6C1483.58,313.52,1447.28,259.73,1447.28,205.94Z"/><path class="cls-5" d="M1792.13,70.64c27.06,0,44.88,8.25,44.88,29.37,0,40.26-29.7,53.46-29.7,85.14,0,38.28,27.39,45.54,27.39,93.39,0,25.08-20.79,35.64-43.56,35.64-23.43,0-37.62-12.21-37.62-28.71,0-18.81,17.16-40.92,17.16-61.05,0-12.54-9.24-27.72-29.7-27.72-17.49,0-30.36,9.9-30.36,31,0,10.23,13.53,33.66,13.53,53.46,0,20.13-14.85,31.35-38.28,31.35-23.76,0-42.9-9.9-42.9-29.37,0-48.84,24.42-49.5,24.42-98.67,0-51.81-24.75-50.82-24.75-82.17,0-24.09,19.14-33.33,46.2-33.33,22.44,0,41.91,7.26,41.91,22.44,0,30.69-23.1,30-23.1,54.78,0,17.82,10.89,21.78,27.39,21.78,27.39,0,37-10.89,37-21.45,0-16.83-23.1-34.32-23.1-51.48C1748.9,74.6,1776,70.64,1792.13,70.64Z"/></svg>